<?xml version="1.0" standalone="no"?><!DOCTYPE svg PUBLIC "-//W3C//DTD SVG 1.1//EN" "http://www.w3.org/Graphics/SVG/1.1/DTD/svg11.dtd"><svg t="1573118438678" class="icon" viewBox="0 0 1024 1024" version="1.1" xmlns="http://www.w3.org/2000/svg" p-id="1103" xmlns:xlink="http://www.w3.org/1999/xlink" width="200" height="200"><defs><style type="text/css"></style></defs><path d="M426.542817 0.599756h170.530695C710.527404-1.899228 833.477436 32.886635 911.045912 112.954095c80.167419 77.568476 114.853323 200.518508 112.454298 313.972399v170.530696c2.399025 113.453892-32.286878 236.403924-112.454298 313.972399-77.568476 80.167419-200.518508 114.853323-313.9724 112.454298H426.542817c-113.453892 2.399025-236.403924-32.286878-313.9724-112.454298C32.402998 833.961073-2.282906 711.011041 0.116119 597.557149V427.026454C-2.282906 313.472603 32.402998 190.52257 112.570417 112.954095 190.138893 32.886635 313.088925-1.899228 426.542817 0.599756z" fill="#0EDCC6" p-id="1104"></path><path d="M112.570417 112.954095C36.90117 186.224317 1.715469 299.878128 0.116119 407.834254c137.943939 0 249.79848-111.954501 249.798481-249.89844 0-42.782613-10.795613-83.066241-29.687935-118.251942-40.583507 17.892728-77.568476 42.182857-107.656248 73.270223z" fill="#FFFFFF" opacity=".5" p-id="1105"></path><path d="M782.398195 663.530337c-10.295816 51.079241-26.089397 71.370994-63.074366 108.455923-8.996344 8.996344-52.178794 30.48761-83.466079 28.588381-11.995125-0.699716-53.578225 2.199106-65.273472-30.887447-16.09346-42.982532 3.098741-39.98375 14.39415-79.267785 0.599756-51.079241-1.699309-78.867948-82.066648-119.251535-36.585132-21.491266-73.070304-36.984969-94.861448-59.375869-5.497766-5.597725-15.193825-16.09346-18.992281-21.891104 0.199919 0.299878-25.889478-26.489235-15.093866-55.077616 20.691591-50.779363 27.488828-57.876479 77.168638-82.466485 0 0 66.373026-21.691185 122.650155-18.592444 27.788706 1.59935 69.371807 9.895978 96.260879 25.189763 55.577413 29.587975 78.268191 49.57985 96.06096 121.350682 9.496141 35.685497 15.893541 68.87201 19.092241 99.159701 0.799675 7.596913 1.299472 14.993906 1.59935 22.290941 0.299878 7.297034 0.299878 14.39415 0.099959 21.391306-0.399838 14.094272-1.899228 27.488828-4.498172 40.383588zM644.854094 401.436854c-2.998781-1.499391-6.3974-3.398619-9.995938-5.497766-20.191794-11.595288-54.078022-30.987407-96.06096-13.894353-8.996344 3.698497-13.394556 13.994313-9.696059 23.090615 3.698497 9.096303 13.994313 13.394556 23.090615 9.69606 25.889478-10.495734 46.681029 1.399431 64.973595 11.895166 4.398213 2.498984 8.396588 4.79805 12.095084 6.597318 6.297441 2.998781 13.494516 2.099147 18.592444-1.899228 2.099147-1.59935 3.798456-3.698497 5.097928-6.29744 4.398213-8.796425 0.699716-19.392119-8.096709-23.690372z m23.890291-83.266161c-15.893541-14.094272-18.892322-36.78505-6.49736-50.779363 12.394963-13.994313 35.28566-13.894353 51.179201 0.199919 15.893541 14.094272 18.892322 36.78505 6.497359 50.779363s-35.28566 13.894353-51.1792-0.199919zM553.691143 296.879346c-19.29216-8.396588-28.88826-28.88826-21.491266-45.781394 7.396994-16.893135 28.88826-23.790331 48.180419-15.393744 19.29216 8.396588 28.88826 28.88826 21.491266 45.781394-7.396994 16.893135-28.988219 23.790331-48.180419 15.393744z m-119.051617-7.197075c-20.291753-5.197888-33.086553-23.890291-28.588381-41.783019 4.598131-17.792769 24.789925-28.088585 45.081678-22.790738 20.291753 5.197888 33.086553 23.890291 28.588382 41.78302-4.598131 17.792769-24.789925 27.988625-45.081679 22.790737z m-124.649341 102.958157c-40.583507 0-73.470141-28.7883-73.470142-64.273878s32.886635-64.273879 73.470142-64.273879 73.470141 28.7883 73.470141 64.273879-32.886635 64.273879-73.470141 64.273878z" fill="#FFFFFF" p-id="1106"></path><path d="M677.140972 771.286544c0 7.297034 0.399838 14.39415 1.299472 21.491266 19.092241-6.597319 35.685497-15.9935 40.883385-21.191388 36.984969-37.084928 52.77855-57.376682 63.074366-108.455922 2.598944-12.894759 4.098334-26.289316 4.498172-40.283629 0.199919-5.597725 0.199919-11.295409 0-16.993094-64.473797 27.18895-109.755395 91.062991-109.755395 165.432767z" fill="#0EDCC6" opacity=".5" p-id="1107"></path></svg>