<?xml version="1.0" standalone="no"?>
<!DOCTYPE svg PUBLIC "-//W3C//DTD SVG 20010904//EN"
 "http://www.w3.org/TR/2001/REC-SVG-20010904/DTD/svg10.dtd">
<svg version="1.0" xmlns="http://www.w3.org/2000/svg"
 width="147.000000pt" height="37.000000pt" viewBox="0 0 147.000000 37.000000"
 preserveAspectRatio="xMidYMid meet">

<g transform="translate(0.000000,37.000000) scale(0.100000,-0.100000)"
fill="#000000" stroke="none">
<path d="M0 185 l0 -185 735 0 735 0 0 185 0 185 -735 0 -735 0 0 -185z m351
23 c1 -29 0 -57 -1 -63 -1 -5 2 -6 6 -2 5 4 7 26 5 47 -2 38 -1 40 27 40 34 0
42 -14 42 -68 0 -30 -5 -39 -27 -49 -35 -17 -50 -16 -57 2 -8 22 -66 19 -92
-6 -21 -19 -22 -19 -39 -2 -13 13 -20 14 -23 5 -5 -16 -37 -16 -49 1 -5 6 -11
42 -12 80 l-2 67 111 0 110 0 1 -52z m241 11 c-1 -8 4 -6 13 6 10 13 18 16 23
9 12 -18 50 -23 63 -8 16 20 29 17 23 -3 -5 -16 -4 -16 8 -3 7 8 29 16 48 17
l35 2 -30 -16 c-16 -9 -25 -18 -18 -20 6 -2 24 4 38 13 21 14 54 18 156 21
l129 4 0 -37 c0 -28 -3 -35 -15 -30 -8 3 -15 1 -15 -4 0 -6 8 -11 18 -11 16
-1 16 -2 0 -6 -10 -2 -18 -9 -18 -14 0 -12 47 -12 55 1 3 6 11 10 16 10 6 0 7
-4 4 -10 -3 -5 1 -10 9 -10 28 0 17 28 -11 32 l-28 4 25 11 25 12 -25 1 c-23
1 -24 1 -7 15 18 13 17 14 -5 18 -16 3 -12 5 13 6 20 0 52 3 70 6 l34 5 -39
-15 c-54 -21 -58 -29 -11 -21 l40 6 -35 -20 c-22 -13 -27 -18 -12 -15 13 4 29
1 37 -5 8 -6 19 -9 26 -5 8 6 8 9 0 14 -15 9 9 61 28 61 11 0 10 -4 -2 -23
-15 -23 -15 -24 10 -19 18 3 21 7 11 13 -9 6 -6 9 10 9 13 0 20 4 17 10 -8 13
-2 13 30 -4 l28 -14 -28 -4 c-30 -3 -48 -28 -20 -28 9 0 13 5 10 10 -9 14 8
13 23 -2 17 -17 15 -31 -3 -24 -10 4 -15 -1 -15 -14 0 -22 16 -27 23 -7 2 6 8
9 12 5 11 -11 -4 -28 -26 -28 -11 0 -22 7 -26 16 -4 11 -8 12 -13 4 -10 -16
-87 -23 -110 -10 -11 6 -21 6 -24 1 -3 -5 -45 -9 -93 -9 -49 0 -78 3 -65 5 12
2 22 9 22 15 0 6 -9 8 -22 3 -32 -9 -76 -16 -60 -9 20 10 15 44 -8 44 -11 0
-20 -4 -20 -9 0 -6 -19 -12 -42 -14 l-43 -4 48 -1 c34 -2 47 -6 47 -17 0 -12
-13 -15 -55 -15 -53 0 -55 1 -56 28 0 28 -17 77 -18 54 -1 -9 -17 -12 -60 -9
-32 2 -63 7 -69 11 -15 9 -33 -49 -19 -63 16 -16 48 -13 70 6 15 13 21 15 24
6 6 -18 23 -16 23 2 0 10 -11 15 -35 15 -24 0 -35 -5 -35 -15 0 -8 -4 -15 -10
-15 -5 0 -10 9 -10 20 0 18 7 20 54 20 51 0 54 -1 58 -27 l4 -28 -70 -2 c-39
-1 -77 3 -84 9 -9 8 -16 8 -24 0 -7 -7 -23 -12 -38 -12 -20 0 -22 2 -10 10 13
8 12 10 -2 10 -10 0 -18 -4 -18 -10 0 -5 -4 -10 -10 -10 -5 0 -10 15 -10 34 0
32 3 35 33 39 30 4 29 4 -8 6 -30 1 -36 4 -25 11 8 5 11 10 7 10 -5 0 -6 4 -2
9 9 16 60 7 57 -10z"/>
<path d="M283 215 c0 -22 2 -30 4 -17 2 12 2 30 0 40 -3 9 -5 -1 -4 -23z"/>
<path d="M380 205 c0 -9 9 -15 21 -15 18 0 19 2 9 15 -7 8 -16 15 -21 15 -5 0
-9 -7 -9 -15z"/>
<path d="M938 222 c-16 -3 -16 -5 -3 -19 17 -17 29 -12 23 9 -1 7 -11 12 -20
10z"/>
<path d="M980 210 c0 -11 5 -20 10 -20 6 0 10 9 10 20 0 11 -4 20 -10 20 -5 0
-10 -9 -10 -20z"/>
<path d="M620 195 c0 -8 5 -15 10 -15 6 0 10 7 10 15 0 8 -4 15 -10 15 -5 0
-10 -7 -10 -15z"/>
<path d="M853 193 c15 -2 37 -2 50 0 12 2 0 4 -28 4 -27 0 -38 -2 -22 -4z"/>
<path d="M600 166 c0 -22 3 -27 11 -19 8 8 8 16 0 30 -9 16 -10 14 -11 -11z"/>
<path d="M1260 180 c-9 -6 -10 -10 -3 -10 6 0 15 5 18 10 8 12 4 12 -15 0z"/>
<path d="M558 173 c7 -3 16 -2 19 1 4 3 -2 6 -13 5 -11 0 -14 -3 -6 -6z"/>
<path d="M853 173 c9 -2 25 -2 35 0 9 3 1 5 -18 5 -19 0 -27 -2 -17 -5z"/>
<path d="M980 165 c0 -8 9 -10 25 -7 32 6 32 17 0 18 -14 1 -25 -4 -25 -11z"/>
<path d="M1257 159 c-11 -6 -35 -8 -55 -5 -37 7 -37 7 -11 -7 21 -12 34 -12
63 -3 20 6 36 14 36 18 0 11 -11 9 -33 -3z"/>
<path d="M558 153 c7 -3 16 -2 19 1 4 3 -2 6 -13 5 -11 0 -14 -3 -6 -6z"/>
<path d="M858 133 c12 -2 30 -2 40 0 9 3 -1 5 -23 4 -22 0 -30 -2 -17 -4z"/>
</g>
</svg>
